<?xml version="1.0" encoding="UTF-8"?>
<svg version="1.1" xmlns="http://www.w3.org/2000/svg" width="500" height="500">
<path d="M0 0 C20.13 0 40.26 0 61 0 C62.49846814 3.74617035 63.45987707 6.69411202 64.22094727 10.56884766 C64.43779678 11.65992828 64.6546463 12.75100891 64.87806702 13.87515259 C65.21879494 15.62691299 65.21879494 15.62691299 65.56640625 17.4140625 C65.80536118 18.62065521 66.0443161 19.82724792 66.29051208 21.07040405 C67.0524044 24.92105196 67.80780115 28.77293634 68.5625 32.625 C69.32120476 36.48410714 70.08241522 40.34271632 70.84519958 44.20101929 C71.31937173 46.60114393 71.79133013 49.00170718 72.26087952 51.40274048 C72.47457687 52.48751678 72.68827423 53.57229309 72.90844727 54.68994141 C73.09560806 55.64526764 73.28276886 56.60059387 73.4756012 57.58486938 C73.98157749 60.12428134 73.98157749 60.12428134 75 63 C75.94746094 61.61554688 75.94746094 61.61554688 76.9140625 60.203125 C82.70540689 51.75342249 88.54689411 43.34054739 94.42944336 34.95410156 C99.89661061 27.15728998 105.33212883 19.33864853 110.75854492 11.51342773 C111.39896729 10.59118408 112.03938965 9.66894043 112.69921875 8.71875 C113.26471436 7.90341797 113.83020996 7.08808594 114.4128418 6.24804688 C115.19848511 5.13526367 115.19848511 5.13526367 116 4 C116.36754395 3.25073242 116.73508789 2.50146484 117.11376953 1.72949219 C120.34392628 -1.23225133 124.27428712 -0.48676737 128.48046875 -0.390625 C129.87245232 -0.38213531 129.87245232 -0.38213531 131.29255676 -0.37347412 C134.25806146 -0.35107376 137.2223602 -0.30087073 140.1875 -0.25 C142.19724818 -0.22993973 144.20701529 -0.21168813 146.21679688 -0.1953125 C151.14499629 -0.15119696 156.07229365 -0.08214424 161 0 C158.32669874 18.59150514 152.44144432 34.84715093 144.83984375 51.85644531 C142.96488127 56.06067279 141.14791334 60.28842356 139.34375 64.5234375 C139.03914856 65.23823273 138.73454712 65.95302795 138.42071533 66.68948364 C137.80091588 68.14432184 137.18122644 69.59920691 136.56164551 71.05413818 C134.9907273 74.7369822 133.40944109 78.41536129 131.828125 82.09375 C131.51284851 82.82737762 131.19757202 83.56100525 130.8727417 84.31686401 C129.59596076 87.28767058 128.31884384 90.25833268 127.04174805 93.22900391 C124.81801453 98.40203272 122.5958512 103.57573314 120.375 108.75 C120.06723633 109.46665833 119.75947266 110.18331665 119.44238281 110.92169189 C115.99519518 118.95188642 112.57340782 126.99188105 109.203125 135.0546875 C108.89899689 135.7820813 108.59486877 136.5094751 108.28152466 137.25891113 C106.8322497 140.72777825 105.38686351 144.19820675 103.94677734 147.67089844 C103.44098145 148.88551758 102.93518555 150.10013672 102.4140625 151.3515625 C101.9701416 152.42229004 101.5262207 153.49301758 101.06884766 154.59619141 C100 157 100 157 99 158 C96.81360547 158.07258946 94.62499611 158.08373783 92.4375 158.0625 C90.64119141 158.04896484 90.64119141 158.04896484 88.80859375 158.03515625 C87.88175781 158.02355469 86.95492187 158.01195312 86 158 C90.03095676 137.26724814 94.49442769 116.63360676 99 96 C98.32453125 97.08539063 97.6490625 98.17078125 96.953125 99.2890625 C96.05213204 100.73440537 95.15108764 102.17971616 94.25 103.625 C93.8065625 104.33785156 93.363125 105.05070312 92.90625 105.78515625 C91.61109531 107.86121304 90.30640912 109.93101253 89 112 C88.62037109 112.61456055 88.24074219 113.22912109 87.84960938 113.86230469 C86.95315616 115.27683801 85.98346973 116.64452215 85 118 C84.34 118 83.68 118 83 118 C82.76224854 118.58410645 82.52449707 119.16821289 82.27954102 119.77001953 C80.72423883 122.48059578 79.02135562 123.80255941 76.52734375 125.6796875 C75.62693359 126.36160156 74.72652344 127.04351562 73.79882812 127.74609375 C72.3824707 128.79990234 72.3824707 128.79990234 70.9375 129.875 C70.02033203 130.56980469 69.10316406 131.26460937 68.15820312 131.98046875 C62.5655039 136.18985683 56.87373545 140.19279838 51 144 C49.42677416 138.04464702 48.26253074 132.10881256 47.2734375 126.03125 C47.12089508 125.11033569 46.96835266 124.18942139 46.81118774 123.24060059 C46.32938404 120.32756458 45.85212013 117.41380639 45.375 114.5 C45.04717588 112.51297117 44.71905383 110.52599147 44.390625 108.5390625 C43.5903043 103.69326954 42.79405145 98.84682404 42 94 C38.56043331 107.21268867 35.66737088 120.52584491 32.8125 133.875 C31.92623907 138.01889431 31.03650203 142.16201894 30.14453125 146.3046875 C29.94350296 147.25036591 29.74247467 148.19604431 29.53535461 149.17037964 C29.34813339 150.0395401 29.16091217 150.90870056 28.96801758 151.80419922 C28.80465408 152.56868378 28.64129059 153.33316833 28.47297668 154.12081909 C28 156 28 156 27 158 C13.8 158 0.6 158 -13 158 C-11.87499885 146.74998855 -11.87499885 146.74998855 -11.03349304 142.93237305 C-10.74981369 141.62554314 -10.74981369 141.62554314 -10.46040344 140.29231262 C-10.25521591 139.37471664 -10.05002838 138.45712067 -9.83862305 137.51171875 C-9.62057007 136.51504684 -9.40251709 135.51837494 -9.17785645 134.49150085 C-8.46120862 131.22228761 -7.73652984 127.95491216 -7.01171875 124.6875 C-6.50657324 122.39089583 -6.00192789 120.0941816 -5.49775696 117.79736328 C-4.17107146 111.75996774 -2.83753609 105.72410532 -1.50256348 99.6885376 C-0.15700676 93.59927379 1.1819228 87.50855366 2.52148438 81.41796875 C4.26746466 73.48349144 6.01439353 65.54922639 7.76748943 57.61631775 C8.21613165 55.5845488 8.66370095 53.55254258 9.11009693 51.52027893 C10.13086081 46.8816318 11.16966224 42.24906803 12.25888062 37.62597656 C12.45210246 36.79450104 12.64532431 35.96302551 12.84440136 35.10635376 C13.20201261 33.57230842 13.56672248 32.03989209 13.94012165 30.50961304 C15.06458837 25.70014232 15.06458837 25.70014232 14 21 C12.59932029 18.76849973 12.59932029 18.76849973 10.83984375 16.5234375 C10.21142578 15.688125 9.58300781 14.8528125 8.93554688 13.9921875 C8.27619141 13.12851563 7.61683594 12.26484375 6.9375 11.375 C5.62985031 9.65688301 4.32624102 7.93568084 3.02734375 6.2109375 C2.44718506 5.45087402 1.86702637 4.69081055 1.26928711 3.90771484 C0 2 0 2 0 0 Z " fill="#1B92C8" transform="translate(129,142)"/>
<path d="M0 0 C22.11 0 44.22 0 67 0 C66.79054288 25.81670361 66.79054288 25.81670361 66.69335938 37.16210938 C66.62808129 44.78473632 66.56333804 52.40736396 66.50268555 60.0300293 C66.2418778 92.69554677 65.764874 125.34180846 65 158 C50.48 158 35.96 158 21 158 C20.67 152.72 20.34 147.44 20 142 C17.87916695 138.58207775 16.73798143 136.96187979 13.875 134.5 C12.67914788 133.34951897 11.4838303 132.19848205 10.2890625 131.046875 C9.71575195 130.52029297 9.14244141 129.99371094 8.55175781 129.45117188 C6.64062066 127.66391586 4.93685491 125.74864326 3.25 123.75 C-0.04557725 119.92022694 -3.46008435 116.20488196 -6.88671875 112.4921875 C-9 110 -9 110 -13 104 C-1.12 104 10.76 104 23 104 C23 99.05 23 94.1 23 89 C23.04750824 85.82137825 23.10224099 82.64625185 23.18359375 79.46875 C23.20341812 78.66312622 23.22324249 77.85750244 23.2436676 77.02746582 C23.28553499 75.3574775 23.32841172 73.68751417 23.37231445 72.01757812 C23.43813827 69.47534906 23.49746427 66.93301649 23.55664062 64.390625 C23.59856437 62.74998989 23.64086812 61.10936443 23.68359375 59.46875 C23.70030624 58.7207312 23.71701874 57.9727124 23.73423767 57.20202637 C23.8596538 52.72592756 24.28525688 48.42145108 25 44 C24.34 44 23.68 44 23 44 C22.80898964 45.0879335 22.80898964 45.0879335 22.61412048 46.19784546 C22.02092731 48.90451131 21.21086054 51.26895559 20.17407227 53.83447266 C19.80020889 54.76538727 19.42634552 55.69630188 19.04115295 56.65542603 C18.43490334 58.14470108 18.43490334 58.14470108 17.81640625 59.6640625 C17.40083969 60.69308685 16.98527313 61.72211121 16.55711365 62.78231812 C15.67911432 64.95339457 14.79894149 67.12359314 13.91674805 69.29296875 C12.56557112 72.61744372 11.222726 75.94519532 9.88085938 79.2734375 C9.02653647 81.38301295 8.17173503 83.49239468 7.31640625 85.6015625 C6.91426407 86.598461 6.51212189 87.5953595 6.09779358 88.62246704 C5.72077805 89.54707733 5.34376251 90.47168762 4.95532227 91.42431641 C4.46020897 92.64412704 4.46020897 92.64412704 3.95509338 93.88858032 C3 96 3 96 1 99 C-1.70556641 99.43237305 -1.70556641 99.43237305 -5.1015625 99.51171875 C-6.91914063 99.56489258 -6.91914063 99.56489258 -8.7734375 99.61914062 C-10.04445313 99.64169922 -11.31546875 99.66425781 -12.625 99.6875 C-13.90375 99.72166016 -15.1825 99.75582031 -16.5 99.79101562 C-19.66657932 99.87372479 -22.83287364 99.94280085 -26 100 C-25.28714844 100.76183594 -24.57429688 101.52367187 -23.83984375 102.30859375 C-21.33875594 104.99313543 -18.87704662 107.7112292 -16.42431641 110.43994141 C-15.17988985 111.80296603 -13.8957253 113.12949468 -12.60546875 114.44921875 C-10.65342474 116.59377204 -9.26534379 118.39409203 -8 121 C-8.70877915 129.23208557 -13.82052539 137.71557329 -17.1875 145.125 C-19.105625 149.37375 -21.02375 153.6225 -23 158 C-37.52 158 -52.04 158 -67 158 C-61.38031817 143.38882723 -61.38031817 143.38882723 -59.0390625 137.97265625 C-58.77644623 137.36269806 -58.51382996 136.75273987 -58.24325562 136.1242981 C-57.67331149 134.80103044 -57.10229257 133.47822527 -56.53027344 132.15585327 C-54.88156501 128.34338177 -53.24231897 124.52683629 -51.6015625 120.7109375 C-51.06079071 119.45409401 -51.06079071 119.45409401 -50.50909424 118.17185974 C-45.64321442 106.85634182 -40.82402803 95.52090472 -36 84.1875 C-35.02802406 81.90469131 -34.05601867 79.62189517 -33.08398438 77.33911133 C-28.69178145 67.02362322 -24.30099508 56.70753239 -19.9108696 46.39116001 C-17.75808488 41.33240289 -15.60487576 36.27382653 -13.45140457 31.2153616 C-11.66614868 27.02170889 -9.88182964 22.82765826 -8.09765625 18.63354492 C-7.1719124 16.45880569 -6.24613312 14.28408155 -5.3203125 12.109375 C-4.68296677 10.61030357 -4.68296677 10.61030357 -4.03274536 9.08094788 C-3.64569427 8.17219406 -3.25864319 7.26344025 -2.85986328 6.32714844 C-2.52286407 5.53516052 -2.18586487 4.74317261 -1.83865356 3.92718506 C-1.26189056 2.60181176 -0.64641626 1.29283253 0 0 Z " fill="#070707" transform="translate(300,142)"/>
<path d="M0 0 C0.99 1.98 1.98 3.96 3 6 C3.66 4.35 4.32 2.7 5 1 C7.31 1 9.62 1 12 1 C12.66 2.32 13.32 3.64 14 5 C14.61875 4.360625 15.2375 3.72125 15.875 3.0625 C18.67502693 0.3448268 19.48138527 0.03771743 23.4375 -0.25 C27 0 27 0 28.9375 1.5 C29.288125 1.995 29.63875 2.49 30 3 C31.051875 2.2575 31.051875 2.2575 32.125 1.5 C35.49395521 -0.25771576 37.25082097 -0.54675527 41 0 C43.875 1.375 43.875 1.375 46 4 C46.78357594 7.49368822 46.77903652 10.50562603 46 14 C43.03149606 17.80577428 43.03149606 17.80577428 40 19 C36.94721108 19.37229133 34.05571801 19.3055718 31 19 C30.67 17.35 30.34 15.7 30 14 C29.34 14.825 28.68 15.65 28 16.5 C24.52888717 19.39259403 24.52888717 19.39259403 20.9375 19.5 C17.14643073 19.01859438 15.64539908 18.64539908 13 16 C12.67 16.99 12.34 17.98 12 19 C10.00045254 19.04254356 7.99958364 19.04080783 6 19 C5.67 18.67 5.34 18.34 5 18 C4.67 18.66 4.34 19.32 4 20 C3.01 19.67 2.02 19.34 1 19 C0.67 18.34 0.34 17.68 0 17 C-0.33 17.66 -0.66 18.32 -1 19 C-2.98 19.33 -4.96 19.66 -7 20 C-7 14.06 -7 8.12 -7 2 C-2 0 -2 0 0 0 Z M21 7 C20.34 8.32 19.68 9.64 19 11 C20.485 11.99 20.485 11.99 22 13 C22.99 12.01 23.98 11.02 25 10 C24.67 9.01 24.34 8.02 24 7 C23.01 7 22.02 7 21 7 Z M37 7 C37 8.98 37 10.96 37 13 C37.99 12.67 38.98 12.34 40 12 C40 10.35 40 8.7 40 7 C39.01 7 38.02 7 37 7 Z " fill="#393939" transform="translate(147,318)"/>
<path d="M0 0 C1.010625 -0.020625 2.02125 -0.04125 3.0625 -0.0625 C4.031875 -0.06765625 5.00125 -0.0728125 6 -0.078125 C6.886875 -0.0874707 7.77375 -0.09681641 8.6875 -0.10644531 C11.42976921 0.31624399 12.29182211 1.12180139 14 3.25 C14.66 2.26 15.32 1.27 16 0.25 C18.4375 -0.125 18.4375 -0.125 21 0.25 C22.8125 1.75 22.8125 1.75 24 3.25 C24.33 2.26 24.66 1.27 25 0.25 C26.98 0.25 28.96 0.25 31 0.25 C31 6.19 31 12.13 31 18.25 C29.35 18.58 27.7 18.91 26 19.25 C24.68 17.27 23.36 15.29 22 13.25 C21.67 15.23 21.34 17.21 21 19.25 C18.33333333 19.25 15.66666667 19.25 13 19.25 C12.01 19.58 11.02 19.91 10 20.25 C9.01 18.93 8.02 17.61 7 16.25 C6.67 17.24 6.34 18.23 6 19.25 C-0.6 19.25 -7.2 19.25 -14 19.25 C-14 13.31 -14 7.37 -14 1.25 C-9.4025367 -0.28248777 -4.81559361 0.02456936 0 0 Z M-8 6.25 C-4 7.25 -4 7.25 -4 7.25 Z M6 6.25 C6.33 7.57 6.66 8.89 7 10.25 C7.66 9.26 8.32 8.27 9 7.25 C8.01 6.92 7.02 6.59 6 6.25 Z M14 7.25 C13.32326553 10.65320934 13.32326553 10.65320934 13 14.25 C13.66 14.91 14.32 15.57 15 16.25 C15 13.28 15 10.31 15 7.25 C14.67 7.25 14.34 7.25 14 7.25 Z M-8 12.25 C-8 12.58 -8 12.91 -8 13.25 C-6.35 13.25 -4.7 13.25 -3 13.25 C-3 12.92 -3 12.59 -3 12.25 C-4.65 12.25 -6.3 12.25 -8 12.25 Z " fill="#2B2B2B" transform="translate(208,318.75)"/>
<path d="M0 0 C1.2065625 0.0309375 1.2065625 0.0309375 2.4375 0.0625 C2.4375 0.7225 2.4375 1.3825 2.4375 2.0625 C3.4275 1.7325 4.4175 1.4025 5.4375 1.0625 C9.76605468 0.57623511 13.2521546 0.31081755 17 2.6875 C19.16370353 6.26231453 18.87483868 9.20381062 17.9375 13.1875 C17.7725 13.80625 17.6075 14.425 17.4375 15.0625 C17.4375 16.3825 17.4375 17.7025 17.4375 19.0625 C15.4575 20.0525 15.4575 20.0525 13.4375 21.0625 C12.4475 19.7425 11.4575 18.4225 10.4375 17.0625 C10.1075 18.0525 9.7775 19.0425 9.4375 20.0625 C7.4575 20.0625 5.4775 20.0625 3.4375 20.0625 C3.1075 18.0825 2.7775 16.1025 2.4375 14.0625 C1.756875 14.8875 1.07625 15.7125 0.375 16.5625 C-2.5625 19.0625 -2.5625 19.0625 -6.1875 19.625 C-9.5625 19.0625 -9.5625 19.0625 -11.26171875 17.48046875 C-13.05185777 14.15285298 -12.85424299 11.5652478 -12.75 7.8125 C-12.72292969 6.54921875 -12.69585937 5.2859375 -12.66796875 3.984375 C-12.63316406 3.02015625 -12.59835937 2.0559375 -12.5625 1.0625 C-10.5825 1.0625 -8.6025 1.0625 -6.5625 1.0625 C-6.2325 4.3625 -5.9025 7.6625 -5.5625 11.0625 C-5.2325 11.0625 -4.9025 11.0625 -4.5625 11.0625 C-4.50191406 10.35222656 -4.44132812 9.64195312 -4.37890625 8.91015625 C-4.29511719 7.99105469 -4.21132813 7.07195312 -4.125 6.125 C-4.04378906 5.20847656 -3.96257812 4.29195313 -3.87890625 3.34765625 C-3.43241544 0.12300042 -3.2948538 0.08036229 0 0 Z M9.4375 7.0625 C9.7675 8.3825 10.0975 9.7025 10.4375 11.0625 C11.0975 10.7325 11.7575 10.4025 12.4375 10.0625 C12.4375 9.0725 12.4375 8.0825 12.4375 7.0625 C11.4475 7.0625 10.4575 7.0625 9.4375 7.0625 Z " fill="#4CA6CF" transform="translate(276.5625,317.9375)"/>
<path d="M0 0 C0.99 1.98 1.98 3.96 3 6 C3.66 4.35 4.32 2.7 5 1 C7.31 1 9.62 1 12 1 C12 6.94 12 12.88 12 19 C10.02 19 8.04 19 6 19 C5.67 18.67 5.34 18.34 5 18 C4.67 18.66 4.34 19.32 4 20 C3.01 19.67 2.02 19.34 1 19 C0.67 18.34 0.34 17.68 0 17 C-0.33 17.66 -0.66 18.32 -1 19 C-2.98 19.33 -4.96 19.66 -7 20 C-7 14.06 -7 8.12 -7 2 C-2 0 -2 0 0 0 Z " fill="#1D1D1D" transform="translate(147,318)"/>
<path d="M0 0 C5 0 5 0 6.8125 1.5 C7.204375 1.995 7.59625 2.49 8 3 C8.33 2.01 8.66 1.02 9 0 C10.98 0 12.96 0 15 0 C15 5.94 15 11.88 15 18 C13.35 18.33 11.7 18.66 10 19 C6 13.25 6 13.25 6 11 C5.34 11 4.68 11 4 11 C4 13.31 4 15.62 4 18 C2.68 18 1.36 18 0 18 C0 12.06 0 6.12 0 0 Z " fill="#151515" transform="translate(224,319)"/>
<path d="M0 0 C3.125 -0.1875 3.125 -0.1875 6 0 C8.50710309 5.93915684 10.60061654 11.70277443 12 18 C9.69 18.33 7.38 18.66 5 19 C5 18.34 5 17.68 5 17 C3.68 17 2.36 17 1 17 C1 17.66 1 18.32 1 19 C-1.31 19 -3.62 19 -6 19 C-5.38221953 16.39392608 -4.75612789 13.79034303 -4.125 11.1875 C-3.95097656 10.44951172 -3.77695312 9.71152344 -3.59765625 8.95117188 C-2.75507489 5.50282963 -1.98714425 2.98071638 0 0 Z " fill="#1C8FBF" transform="translate(301,318)"/>
<path d="M0 0 C1.98 0 3.96 0 6 0 C7.98 5.61 9.96 11.22 12 17 C8 19 8 19 5 19 C5 18.34 5 17.68 5 17 C3.68 17 2.36 17 1 17 C1 17.66 1 18.32 1 19 C-1.31 19 -3.62 19 -6 19 C-5.38379145 16.20612238 -4.75750305 13.41519074 -4.125 10.625 C-3.95097656 9.8309375 -3.77695313 9.036875 -3.59765625 8.21875 C-3.42363281 7.45820313 -3.24960938 6.69765625 -3.0703125 5.9140625 C-2.91320801 5.2123291 -2.75610352 4.5105957 -2.59423828 3.78759766 C-2 2 -2 2 0 0 Z " fill="#2F97C7" transform="translate(252,318)"/>
<path d="M0 0 C3.24931353 0.0465666 4.44193054 0.15677303 7.25 1.9375 C9.41370353 5.51231453 9.12483868 8.45381062 8.1875 12.4375 C8.0225 13.05625 7.8575 13.675 7.6875 14.3125 C7.6875 15.6325 7.6875 16.9525 7.6875 18.3125 C5.7075 19.3025 5.7075 19.3025 3.6875 20.3125 C2.6975 18.9925 1.7075 17.6725 0.6875 16.3125 C0.3575 16.9725 0.0275 17.6325 -0.3125 18.3125 C-1.9625 18.3125 -3.6125 18.3125 -5.3125 18.3125 C-5.33934312 15.49993719 -5.35926188 12.68762759 -5.375 9.875 C-5.38337891 9.07255859 -5.39175781 8.27011719 -5.40039062 7.44335938 C-5.4090143 5.39954779 -5.3647815 3.35566098 -5.3125 1.3125 C-3.74308802 -0.25691198 -2.17115006 0.0675153 0 0 Z M-0.3125 6.3125 C0.0175 7.6325 0.3475 8.9525 0.6875 10.3125 C1.3475 9.9825 2.0075 9.6525 2.6875 9.3125 C2.6875 8.3225 2.6875 7.3325 2.6875 6.3125 C1.6975 6.3125 0.7075 6.3125 -0.3125 6.3125 Z " fill="#4DA4CC" transform="translate(286.3125,318.6875)"/>
<path d="M0 0 C2.79577671 3.45360652 2.90633323 5.84560553 2.66796875 10.20703125 C2.08383765 12.8083057 1.53539048 13.92335267 -0.375 15.75 C-3.875 17.625 -3.875 17.625 -11.875 17.625 C-11.875 11.685 -11.875 5.745 -11.875 -0.375 C-7.38729382 -1.87090206 -4.32371992 -2.06786605 0 0 Z M-6.875 5.625 C-6.875 7.605 -6.875 9.585 -6.875 11.625 C-5.885 11.295 -4.895 10.965 -3.875 10.625 C-3.875 8.975 -3.875 7.325 -3.875 5.625 C-4.865 5.625 -5.855 5.625 -6.875 5.625 Z " fill="#232323" transform="translate(190.875,319.375)"/>
<path d="M0 0 C3.96 0 7.92 0 12 0 C12 1.32 12 2.64 12 4 C10.02 4 8.04 4 6 4 C6 4.66 6 5.32 6 6 C7.98 6 9.96 6 12 6 C12 7.32 12 8.64 12 10 C10.68 10.33 9.36 10.66 8 11 C9.65 11.33 11.3 11.66 13 12 C12.67 13.65 12.34 15.3 12 17 C7.77370786 18.40876405 4.89096249 18 0 18 C0 12.06 0 6.12 0 0 Z " fill="#181818" transform="translate(194,320)"/>
<path d="M0 0 C1.32 0 2.64 0 4 0 C4 3.96 4 7.92 4 12 C4.94875 11.814375 5.8975 11.62875 6.875 11.4375 C10 11 10 11 12 12 C12 10.02 12 8.04 12 6 C14 9 14 9 13.875 11.5 C12.77570258 14.64084979 11.97439196 15.51280402 9 17 C5.25 17.1875 5.25 17.1875 2 17 C-0.44064587 11.35600642 -0.19289099 6.02248522 0 0 Z " fill="#2F95C2" transform="translate(265,320)"/>
<path d="M0 0 C1.65 0 3.3 0 5 0 C5 1.32 5 2.64 5 4 C4.34 4 3.68 4 3 4 C3 4.99 3 5.98 3 7 C3.66 7.66 4.32 8.32 5 9 C6.32 9 7.64 9 9 9 C9 7.02 9 5.04 9 3 C9.99 3 10.98 3 12 3 C12 5.31 12 7.62 12 10 C11.34 10 10.68 10 10 10 C9.67 11.32 9.34 12.64 9 14 C7.68 13.67 6.36 13.34 5 13 C5 14.32 5 15.64 5 17 C3.35 17 1.7 17 0 17 C0 11.39 0 5.78 0 0 Z " fill="#268DBD" transform="translate(281,320)"/>
<path d="M0 0 C0.33 0 0.66 0 1 0 C1.24794402 6.5705166 0.32388229 12.56971459 -1 19 C-0.236875 18.979375 0.52625 18.95875 1.3125 18.9375 C4 19 4 19 7 20 C7.33 21.65 7.66 23.3 8 25 C3.71 25 -0.58 25 -5 25 C-3.35 16.75 -1.7 8.5 0 0 Z " fill="#4DA6CD" transform="translate(220,275)"/>
<path d="M0 0 C1.04973814 4.19895255 0.72795155 6.79405774 0 11 C0.99 11 1.98 11 3 11 C2.67 9.68 2.34 8.36 2 7 C2.66 7 3.32 7 4 7 C4.66 5.68 5.32 4.36 6 3 C6.33 3.99 6.66 4.98 7 6 C6.67 6.66 6.34 7.32 6 8 C7.98 8.99 9.96 9.98 12 11 C11.67 8.03 11.34 5.06 11 2 C13.95183101 4.95183101 14.08663988 7.95511947 15 12 C12.69 12.33 10.38 12.66 8 13 C8 12.34 8 11.68 8 11 C6.68 11 5.36 11 4 11 C4 11.66 4 12.32 4 13 C1.69 13 -0.62 13 -3 13 C-2.01 8.71 -1.02 4.42 0 0 Z " fill="#59ACCF" transform="translate(249,324)"/>
<path d="M0 0 C13.86 0 27.72 0 42 0 C41.01 5.28 40.02 10.56 39 16 C38.67 16 38.34 16 38 16 C37.97250234 14.62511713 37.9533836 13.25006609 37.9375 11.875 C37.92589844 11.10929688 37.91429687 10.34359375 37.90234375 9.5546875 C38.01374689 6.64038138 38.50080042 3.87082942 39 1 C33.76693114 1.09340698 28.534332 1.19947109 23.30175781 1.31738281 C21.52090527 1.35571565 19.73997416 1.39056089 17.95898438 1.421875 C15.40205766 1.46743271 12.8456739 1.52544107 10.2890625 1.5859375 C9.49005524 1.59748871 8.69104797 1.60903992 7.86782837 1.62094116 C3.46542788 1.57258944 3.46542788 1.57258944 0 4 C-0.66 4 -1.32 4 -2 4 C-1.34 2.68 -0.68 1.36 0 0 Z " fill="#63ADCE" transform="translate(248,142)"/>
<path d="M0 0 C20.13 0 40.26 0 61 0 C61 0.33 61 0.66 61 1 C42.19 1 23.38 1 4 1 C4 2.32 4 3.64 4 5 C3.34 5 2.68 5 2 5 C1.34 3.35 0.68 1.7 0 0 Z " fill="#5CA9CD" transform="translate(129,142)"/>
<path d="M0 0 C3.125 -0.1875 3.125 -0.1875 6 0 C8.50710309 5.93915684 10.60061654 11.70277443 12 18 C9.69 18.33 7.38 18.66 5 19 C5 18.34 5 17.68 5 17 C3.68 16.67 2.36 16.34 1 16 C6.75 15.875 6.75 15.875 9 17 C8.1395861 12.66770285 8.1395861 12.66770285 6 9 C5.95936168 7.33382885 5.957279 5.66611905 6 4 C5.01 3.67 4.02 3.34 3 3 C2.01 2.67 1.02 2.34 0 2 C-0.33 3.65 -0.66 5.3 -1 7 C-1.625 5.1875 -1.625 5.1875 -2 3 C-1.34 2.01 -0.68 1.02 0 0 Z " fill="#65AECB" transform="translate(301,318)"/>
<path d="M0 0 C0.33 0 0.66 0 1 0 C1.88792771 4.14123977 2.76013095 8.28540084 3.6184082 12.43286133 C3.91204083 13.84097426 4.20982481 15.24822856 4.51196289 16.65454102 C4.94752852 18.68550075 5.36767392 20.71916211 5.78515625 22.75390625 C6.04176025 23.97408447 6.29836426 25.1942627 6.56274414 26.45141602 C7.02570162 30.20858354 6.7004262 33.2941842 6 37 C5.67 37 5.34 37 5 37 C5 33.7 5 30.4 5 27 C4.34 27 3.68 27 3 27 C3 25.02 3 23.04 3 21 C2.34 21 1.68 21 1 21 C0.67 14.07 0.34 7.14 0 0 Z " fill="#5EADCC" transform="translate(194,162)"/>
<path d="M0 0 C2 3 2 3 1.6796875 4.9453125 C1.41414063 5.66460937 1.14859375 6.38390625 0.875 7.125 C0.58753906 7.91003906 0.30007813 8.69507813 0.00390625 9.50390625 C-1.55739221 13.38588957 -3.23362632 17.20722809 -5 21 C-5.33 21 -5.66 21 -6 21 C-6.24887295 18.89807303 -6.4734719 16.79326036 -6.6875 14.6875 C-6.81511719 13.51574219 -6.94273437 12.34398437 -7.07421875 11.13671875 C-7 8 -7 8 -5.51953125 6.08203125 C-5.01808594 5.72496094 -4.51664062 5.36789063 -4 5 C-3.01 5.66 -2.02 6.32 -1 7 C-0.67 4.69 -0.34 2.38 0 0 Z " fill="#42A1C9" transform="translate(265,205)"/>
<path d="M0 0 C1.64574566 -0.02688151 3.29161413 -0.04634123 4.9375 -0.0625 C5.85402344 -0.07410156 6.77054688 -0.08570313 7.71484375 -0.09765625 C10 0 10 0 11 1 C11.07325168 3.86267567 11.09238205 6.700719 11.0625 9.5625 C11.05798828 10.36880859 11.05347656 11.17511719 11.04882812 12.00585938 C11.03700518 14.00393756 11.01906914 16.00197783 11 18 C12.65 18 14.3 18 16 18 C16.33 17.01 16.66 16.02 17 15 C17 16.32 17 17.64 17 19 C14.69 19 12.38 19 10 19 C8.75453595 16.50907189 9.2232422 15.58919267 10 13 C8.35 12.67 6.7 12.34 5 12 C6.32 11.67 7.64 11.34 9 11 C9 9.68 9 8.36 9 7 C6.03 6.505 6.03 6.505 3 6 C3 5.67 3 5.34 3 5 C4.98 5 6.96 5 9 5 C9 3.68 9 2.36 9 1 C6.03 1 3.06 1 0 1 C0 0.67 0 0.34 0 0 Z " fill="#B2B2B2" transform="translate(197,319)"/>
<path d="M0 0 C1.64961389 4.05362438 0.23911189 6.86293024 -1.25 10.8125 C-1.71277344 12.04871094 -2.17554688 13.28492188 -2.65234375 14.55859375 C-4.03046381 18.0777931 -5.44242222 21.55693333 -7 25 C-7.33 25 -7.66 25 -8 25 C-8.04254356 23.00045254 -8.04080783 20.99958364 -8 19 C-7.67 18.67 -7.34 18.34 -7 18 C-6.95907063 15.66702567 -6.95758277 13.33294775 -7 11 C-6.360625 10.835 -5.72125 10.67 -5.0625 10.5 C-2.8328496 9.22621522 -2.8328496 9.22621522 -2.58203125 7.12109375 C-2.51371094 6.40050781 -2.44539063 5.67992187 -2.375 4.9375 C-2.25125 3.638125 -2.1275 2.33875 -2 1 C-1.34 0.67 -0.68 0.34 0 0 Z " fill="#52A7CA" transform="translate(285,159)"/>
<path d="M0 0 C1.98 0 3.96 0 6 0 C6.33 3.3 6.66 6.6 7 10 C7.33 10 7.66 10 8 10 C8.33 6.7 8.66 3.4 9 0 C9.33 0 9.66 0 10 0 C10 4.29 10 8.58 10 13 C9.01 13.33 8.02 13.66 7 14 C6.34 13.67 5.68 13.34 5 13 C5 9.04 5 5.08 5 1 C3.68 1 2.36 1 1 1 C1.33 5.95 1.66 10.9 2 16 C0 14 0 14 -0.1953125 10.7421875 C-0.17210937 9.46601563 -0.14890625 8.18984375 -0.125 6.875 C-0.10695313 5.59367187 -0.08890625 4.31234375 -0.0703125 2.9921875 C-0.04710937 2.00476563 -0.02390625 1.01734375 0 0 Z " fill="#77BAD7" transform="translate(264,319)"/>
<path d="M0 0 C0.66 0 1.32 0 2 0 C1.01 5.28 0.02 10.56 -1 16 C-1.33 14.68 -1.66 13.36 -2 12 C-2.66 12 -3.32 12 -4 12 C-4 9.03 -4 6.06 -4 3 C-3.01 2.67 -2.02 2.34 -1 2 C-0.67 1.34 -0.34 0.68 0 0 Z " fill="#49A2CE" transform="translate(158,282)"/>
<path d="M0 0 C0.33 0 0.66 0 1 0 C1.08083434 3.55671096 0.91355216 6.57417939 0 10 C0 11.32 0 12.64 0 14 C-1.98 14.99 -1.98 14.99 -4 16 C-5.32 14.02 -6.64 12.04 -8 10 C-6.68 10 -5.36 10 -4 10 C-3.67 9.01 -3.34 8.02 -3 7 C-2.34 7 -1.68 7 -1 7 C-0.67 4.69 -0.34 2.38 0 0 Z " fill="#60ADCD" transform="translate(294,323)"/>
<path d="M0 0 C0.99 0 1.98 0 3 0 C3 2.31 3 4.62 3 7 C2.34 7 1.68 7 1 7 C0.67 8.32 0.34 9.64 0 11 C-1.32 10.67 -2.64 10.34 -4 10 C-4 9.34 -4 8.68 -4 8 C-4.99 8.33 -5.98 8.66 -7 9 C-7.33 7.35 -7.66 5.7 -8 4 C-7.01 4 -6.02 4 -5 4 C-4.67 4.66 -4.34 5.32 -4 6 C-2.68 6 -1.36 6 0 6 C0 4.02 0 2.04 0 0 Z " fill="#1890C5" transform="translate(290,323)"/>
<path d="M0 0 C-0.59924224 4.19469571 -1.57499941 8.00999834 -3 12 C-3.66 12 -4.32 12 -5 12 C-4.67 9.03 -4.34 6.06 -4 3 C-4.66 3.66 -5.32 4.32 -6 5 C-6 3.35 -6 1.7 -6 0 C-3 -1 -3 -1 0 0 Z " fill="#47A5CA" transform="translate(232,235)"/>
<path d="M0 0 C0.33 0 0.66 0 1 0 C1.66 2.64 2.32 5.28 3 8 C4.65 5.69 6.3 3.38 8 1 C8.66 2.32 9.32 3.64 10 5 C9.01 5 8.02 5 7 5 C6.896875 5.61875 6.79375 6.2375 6.6875 6.875 C6 9 6 9 3 11 C1.68 10.67 0.36 10.34 -1 10 C-0.67 6.7 -0.34 3.4 0 0 Z " fill="#5AACCE" transform="translate(201,197)"/>
<path d="M0 0 C0.33 0 0.66 0 1 0 C0.91275184 2.89724063 0.80584073 5.79150135 0.6875 8.6875 C0.66494141 9.50412109 0.64238281 10.32074219 0.61914062 11.16210938 C0.4078204 15.90720907 -0.02749618 19.08713305 -3 23 C-4.01498547 19.82540369 -3.94466465 17.69122329 -3.22265625 14.453125 C-3.03896484 13.60878906 -2.85527344 12.76445312 -2.66601562 11.89453125 C-2.46685547 11.02183594 -2.26769531 10.14914063 -2.0625 9.25 C-1.86720703 8.36183594 -1.67191406 7.47367188 -1.47070312 6.55859375 C-0.98838288 4.37050678 -0.49790968 2.1845827 0 0 Z " fill="#64ADCE" transform="translate(141,180)"/>
<path d="M0 0 C3.375 4.5 3.375 4.5 4 8 C2.35 8.33 0.7 8.66 -1 9 C-1 9.66 -1 10.32 -1 11 C0.65 10.67 2.3 10.34 4 10 C4 10.66 4 11.32 4 12 C1.69 12 -0.62 12 -3 12 C-2.01 8.04 -1.02 4.08 0 0 Z " fill="#4FA6CA" transform="translate(298,325)"/>
<path d="M0 0 C1 2 1 2 0.25 5.5625 C-0.1625 6.696875 -0.575 7.83125 -1 9 C-1.99 9.33 -2.98 9.66 -4 10 C-4 10.66 -4 11.32 -4 12 C-5.32 12.33 -6.64 12.66 -8 13 C-6.53181332 9.89257577 -4.79975 7.09528261 -2.875 4.25 C-2.33617187 3.45078125 -1.79734375 2.6515625 -1.2421875 1.828125 C-0.62730469 0.92320312 -0.62730469 0.92320312 0 0 Z " fill="#57AACD" transform="translate(229,169)"/>
<path d="M0 0 C0.66 0.33 1.32 0.66 2 1 C0.43551329 6.6143991 -1.16395187 11.86810338 -4 17 C-4.33 17 -4.66 17 -5 17 C-4.67 14.36 -4.34 11.72 -4 9 C-3.34 9 -2.68 9 -2 9 C-2 7.35 -2 5.7 -2 4 C-1.34 4 -0.68 4 0 4 C0 2.68 0 1.36 0 0 Z " fill="#60ADCB" transform="translate(257,225)"/>
<path d="M0 0 C3.37503669 1.1858237 5.64722731 2.27573689 8 5 C7.67 5.66 7.34 6.32 7 7 C5.02 7 3.04 7 1 7 C-0.0625 4.625 -0.0625 4.625 -1 2 C-0.67 1.34 -0.34 0.68 0 0 Z " fill="#309CCF" transform="translate(302,324)"/>
<path d="M0 0 C1.51553092 3.97450493 0.49888623 7.20481149 -0.4375 11.25 C-0.72496094 12.51328125 -1.01242188 13.7765625 -1.30859375 15.078125 C-1.53675781 16.04234375 -1.76492187 17.0065625 -2 18 C-2.33 18 -2.66 18 -3 18 C-3.55353075 5.33029613 -3.55353075 5.33029613 0 0 Z " fill="#66B0D1" transform="translate(166,248)"/>
<path d="M0 0 C0.33 0 0.66 0 1 0 C0.9132428 2.62664903 0.80642019 5.24978082 0.6875 7.875 C0.66494141 8.62136719 0.64238281 9.36773437 0.61914062 10.13671875 C0.52188055 12.099604 0.26957706 14.05328322 0 16 C-0.99 16.66 -1.98 17.32 -3 18 C-2.41509121 11.85845775 -1.45933748 5.99320151 0 0 Z " fill="#68B1D1" transform="translate(135,208)"/>
<path d="M0 0 C0.99 0.495 0.99 0.495 2 1 C3.8981549 6.79436759 4.28774343 12.07638021 3 18 C2.67 18 2.34 18 2 18 C2 14.7 2 11.4 2 8 C1.34 8 0.68 8 0 8 C0 5.36 0 2.72 0 0 Z " fill="#55A7CA" transform="translate(197,181)"/>
<path d="M0 0 C1.04973814 4.19895255 0.72795155 6.79405774 0 11 C1.32 11 2.64 11 4 11 C4 11.66 4 12.32 4 13 C1.69 13 -0.62 13 -3 13 C-2.01 8.71 -1.02 4.42 0 0 Z " fill="#6EAEC9" transform="translate(249,324)"/>
<path d="M0 0 C1.9451 2.91765 2.45276317 4.62537285 3 8 C0.69 8.33 -1.62 8.66 -4 9 C-4 8.34 -4 7.68 -4 7 C-5.32 6.67 -6.64 6.34 -8 6 C-2.25 5.875 -2.25 5.875 0 7 C0 4.69 0 2.38 0 0 Z " fill="#73B3D4" transform="translate(310,328)"/>
<path d="M0 0 C0.99 0 1.98 0 3 0 C2.33501617 4.38889325 0.81242323 7.9811485 -1 12 C-1.33 12 -1.66 12 -2 12 C-1.85904936 10.3745692 -1.71207913 8.74965949 -1.5625 7.125 C-1.48128906 6.22007812 -1.40007812 5.31515625 -1.31640625 4.3828125 C-1 2 -1 2 0 0 Z " fill="#55ABCE" transform="translate(235,275)"/>
<path d="M0 0 C1 2 1 2 0.25 4.9375 C-0.89726872 7.74830836 -1.69701628 9.1157406 -4 11 C-4.66 10.67 -5.32 10.34 -6 10 C-4.6302836 6.00499382 -2.74277578 3.19990508 0 0 Z " fill="#55AACD" transform="translate(241,152)"/>
<path d="M0 0 C0.33 0 0.66 0 1 0 C1 4.29 1 8.58 1 13 C0.01 13.33 -0.98 13.66 -2 14 C-2.66 13.67 -3.32 13.34 -4 13 C-3.67 11.68 -3.34 10.36 -3 9 C-2.34 9.33 -1.68 9.66 -1 10 C-0.67 6.7 -0.34 3.4 0 0 Z " fill="#7DC2DE" transform="translate(273,319)"/>
<path d="M0 0 C-1.17744585 3.53233755 -1.95605641 3.86308075 -5.0625 5.6875 C-5.79597656 6.12449219 -6.52945313 6.56148438 -7.28515625 7.01171875 C-7.85105469 7.33785156 -8.41695312 7.66398437 -9 8 C-9 7.01 -9 6.02 -9 5 C-8.34 5 -7.68 5 -7 5 C-6.67 4.01 -6.34 3.02 -6 2 C-3.85412616 0.684787 -2.52986895 0 0 0 Z " fill="#50A5C9" transform="translate(194,274)"/>
<path d="M0 0 C1.18771723 3.42943519 0.80226223 5.37784675 -0.4375 8.75 C-0.86869141 9.94882813 -0.86869141 9.94882813 -1.30859375 11.171875 C-1.65083984 12.07679688 -1.65083984 12.07679688 -2 13 C-3.29696563 8.66052854 -2.79928632 5.43240597 -2 1 C-1.34 0.67 -0.68 0.34 0 0 Z " fill="#69B3D2" transform="translate(285,159)"/>
<path d="M0 0 C2.5654594 2.5654594 2.54046087 4.47686668 3 8 C4.32 8.33 5.64 8.66 7 9 C4.525 10.485 4.525 10.485 2 12 C0.86235649 7.73383684 0 4.43513689 0 0 Z " fill="#88C0D7" transform="translate(178,274)"/>
<path d="M0 0 C0.66 0 1.32 0 2 0 C0.68775452 3.93673644 -0.91910327 6.22719294 -4 9 C-3.67 6.69 -3.34 4.38 -3 2 C-2.01 2 -1.02 2 0 2 C0 1.34 0 0.68 0 0 Z " fill="#60ADCD" transform="translate(218,249)"/>
<path d="M0 0 C0 3.11227195 -0.45627049 5.94152152 -1 9 C-2.65 9.33 -4.3 9.66 -6 10 C-4.6302836 6.00499382 -2.74277578 3.19990508 0 0 Z " fill="#6FB7D7" transform="translate(216,188)"/>
<path d="M0 0 C0.33 0 0.66 0 1 0 C1 1.65 1 3.3 1 5 C2.32 3.35 3.64 1.7 5 0 C5 1.98 5 3.96 5 6 C3.35 6.33 1.7 6.66 0 7 C0 4.69 0 2.38 0 0 Z " fill="#218CBE" transform="translate(180,276)"/>
<path d="M0 0 C0.99 0.33 1.98 0.66 3 1 C2.67 3.97 2.34 6.94 2 10 C1.67 10 1.34 10 1 10 C0.67 6.7 0.34 3.4 0 0 Z " fill="#5EAFCD" transform="translate(174,250)"/>
<path d="M0 0 C1.09898702 3.29696105 0.87124444 4.40494903 0.0625 7.6875 C-0.13214844 8.49574219 -0.32679688 9.30398437 -0.52734375 10.13671875 C-0.76130859 11.05904297 -0.76130859 11.05904297 -1 12 C-1.33 12 -1.66 12 -2 12 C-2.05395478 10.37536158 -2.09277195 8.75021459 -2.125 7.125 C-2.14820313 6.22007812 -2.17140625 5.31515625 -2.1953125 4.3828125 C-2 2 -2 2 0 0 Z " fill="#68B3D3" transform="translate(169,235)"/>
<path d="M0 0 C0.66 0.33 1.32 0.66 2 1 C1.01 3.97 0.02 6.94 -1 10 C-3 6 -3 6 -3 4 C-2.01 4 -1.02 4 0 4 C0 2.68 0 1.36 0 0 Z " fill="#59AACE" transform="translate(269,197)"/>
<path d="M0 0 C2 3 2 3 1.625 5.6875 C1.41875 6.450625 1.2125 7.21375 1 8 C0.01 8 -0.98 8 -2 8 C-2 7.01 -2 6.02 -2 5 C-1.34 5.33 -0.68 5.66 0 6 C0 4.02 0 2.04 0 0 Z " fill="#4BA3C9" transform="translate(277,326)"/>
<path d="M0 0 C0.66 0.33 1.32 0.66 2 1 C2 2.65 2 4.3 2 6 C0.35 5.67 -1.3 5.34 -3 5 C-3 4.34 -3 3.68 -3 3 C-2.01 3 -1.02 3 0 3 C0 2.01 0 1.02 0 0 Z " fill="#258DBC" transform="translate(258,324)"/>
<path d="M0 0 C1.65 0 3.3 0 5 0 C4.67 0.99 4.34 1.98 4 3 C3.34 3 2.68 3 2 3 C2 3.66 2 4.32 2 5 C1.34 5 0.68 5 0 5 C0 3.35 0 1.7 0 0 Z " fill="#1990C5" transform="translate(282,321)"/>
<path d="M0 0 C0.99 0 1.98 0 3 0 C2.34 3.3 1.68 6.6 1 10 C0.67 10 0.34 10 0 10 C0 6.7 0 3.4 0 0 Z " fill="#1D8FC4" transform="translate(265,321)"/>
<path d="M0 0 C2.4375 1.125 2.4375 1.125 5 3 C5.8125 6.1875 5.8125 6.1875 6 9 C3.59927045 6.11912454 1.52708963 3.43595166 0 0 Z " fill="#72B9D3" transform="translate(140,157)"/>
<path d="M0 0 C1.9375 0.8125 1.9375 0.8125 4 2 C4.33 2.99 4.66 3.98 5 5 C5.66 5.66 6.32 6.32 7 7 C6.01 7 5.02 7 4 7 C0 2.65714286 0 2.65714286 0 0 Z " fill="#69B4D4" transform="translate(134,149)"/>
<path d="M0 0 C0 0.66 0 1.32 0 2 C-0.66 2 -1.32 2 -2 2 C-2.66 3.32 -3.32 4.64 -4 6 C-4.33 6 -4.66 6 -5 6 C-5 4.35 -5 2.7 -5 1 C-3 0 -3 0 0 0 Z " fill="#62ADCA" transform="translate(214,258)"/>
<path d="M0 0 C0.66 0 1.32 0 2 0 C1.67 2.64 1.34 5.28 1 8 C0.34 8 -0.32 8 -1 8 C-0.67 5.36 -0.34 2.72 0 0 Z " fill="#5CA8CC" transform="translate(228,239)"/>
</svg>
